<?xml version="1.0" encoding="UTF-8" standalone="no"?>
<svg
   xmlns:dc="http://purl.org/dc/elements/1.1/"
   xmlns:cc="http://creativecommons.org/ns#"
   xmlns:rdf="http://www.w3.org/1999/02/22-rdf-syntax-ns#"
   xmlns:svg="http://www.w3.org/2000/svg"
   xmlns="http://www.w3.org/2000/svg"
   xmlns:sodipodi="http://sodipodi.sourceforge.net/DTD/sodipodi-0.dtd"
   xmlns:inkscape="http://www.inkscape.org/namespaces/inkscape"
   height="1024"
   width="896"
   version="1.1"
   id="svg3682"
   sodipodi:docname="clippy.svg"
   inkscape:version="0.92.0 r15299">
  <metadata
     id="metadata3688">
    <rdf:RDF>
      <cc:Work
         rdf:about="">
        <dc:format>image/svg+xml</dc:format>
        <dc:type
           rdf:resource="http://purl.org/dc/dcmitype/StillImage" />
      </cc:Work>
    </rdf:RDF>
  </metadata>
  <defs
     id="defs3686" />
  <sodipodi:namedview
     pagecolor="#ffffff"
     bordercolor="#666666"
     borderopacity="1"
     objecttolerance="10"
     gridtolerance="10"
     guidetolerance="10"
     inkscape:pageopacity="0"
     inkscape:pageshadow="2"
     inkscape:window-width="1974"
     inkscape:window-height="1660"
     id="namedview3684"
     showgrid="false"
     inkscape:zoom="1.3652344"
     inkscape:cx="295.27897"
     inkscape:cy="453.402"
     inkscape:window-x="642"
     inkscape:window-y="0"
     inkscape:window-maximized="0"
     inkscape:current-layer="svg3682" />
  <path
     d="M128 768h256v64H128v-64z m320-384H128v64h320v-64z m128 192V448L384 640l192 192V704h320V576H576z m-288-64H128v64h160v-64zM128 704h160v-64H128v64z m576 64h64v128c-1 18-7 33-19 45s-27 18-45 19H64c-35 0-64-29-64-64V192c0-35 29-64 64-64h192C256 57 313 0 384 0s128 57 128 128h192c35 0 64 29 64 64v320h-64V320H64v576h640V768zM128 256h512c0-35-29-64-64-64h-64c-35 0-64-29-64-64s-29-64-64-64-64 29-64 64-29 64-64 64h-64c-35 0-64 29-64 64z"
     id="path3680" />
  <path
     style="stroke-width:0.73247498;fill:#999999"
     d="M 57.090785,959.17135 C 29.752354,956.29368 6.5219593,934.61344 1.4499898,907.24349 0.40829861,901.62218 0.31483752,866.08514 0.48776314,541.37225 0.67325451,193.06405 0.72230243,181.57695 2.0437171,176.96595 c 1.799594,-6.27959 6.1612968,-15.60895 9.8005099,-20.96258 4.166373,-6.12913 13.724708,-14.97332 20.443759,-18.91633 3.160177,-1.85452 8.877107,-4.43527 12.704289,-5.73502 l 6.958512,-2.36318 102.180253,-0.36624 102.18026,-0.36623 0.49225,-8.7897 C 258.96354,80.89685 280.15194,43.926913 312.56369,22.175255 332.83604,8.5704017 354.25844,1.6353175 379.00086,0.66752319 395.70639,0.01408999 408.99799,1.8766128 424.60937,7.0585411 470.9774,22.449611 503.98628,62.64928 510.51305,111.6758 c 0.57045,4.28498 1.04361,9.85095 1.05148,12.36884 l 0.0143,4.57796 100.16595,0.0127 c 108.73133,0.0138 104.34469,-0.14197 114.92009,4.08103 19.63124,7.8392 33.91047,24.23049 39.50577,45.34897 1.30015,4.90737 1.36775,12.15277 1.58039,169.38418 l 0.22216,164.25751 h -31.87672 l -31.87673,-3e-5 v -95.95505 -95.95505 l -320.27468,0.18395 -320.274674,0.18395 v 287.86266 287.86266 l 320.274674,0.18392 320.27468,0.184 V 832.16556 768.0732 h 31.86266 31.86266 v 63.17596 c 0,41.56188 -0.27848,65.43133 -0.80997,69.76824 -3.96393,32.34668 -25.80553,54.18828 -58.15221,58.15222 -7.96383,0.97595 -642.618771,0.97756 -651.890044,0 z M 640.11755,250.7628 c -1.58465,-16.01202 -8.29003,-29.80926 -19.86764,-40.88041 -8.34594,-7.98084 -15.86871,-12.37034 -27.14912,-15.84133 l -6.44328,-1.9826 -42.84978,-0.45553 c -40.83929,-0.43416 -43.09036,-0.52838 -47.97711,-2.00807 -17.21514,-5.2127 -29.96658,-15.1149 -38.9004,-30.20831 -5.1422,-8.68758 -7.56693,-17.33038 -8.4152,-29.99544 -1.12345,-16.77347 -3.9072,-25.97338 -11.15524,-36.866521 -10.37007,-15.58525 -27.33264,-25.985367 -46.27308,-28.371038 -14.67804,-1.848793 -31.59016,2.498063 -43.83151,11.265836 -8.23611,5.899053 -16.19401,15.116057 -20.62455,23.887752 -4.60881,9.124671 -6.11296,15.363141 -6.9801,28.950181 -0.939,14.71265 -4.30002,25.36763 -11.20578,35.52408 -3.3257,4.89118 -10.5245,12.19942 -15.50971,15.74549 -7.01611,4.99069 -11.857,7.16992 -24.53791,11.04627 -1.00715,0.30787 -20.94879,0.77125 -44.31474,1.02973 -41.01416,0.4537 -42.68314,0.52657 -48.25417,2.10713 -24.72951,7.01601 -43.28679,27.47981 -47.28905,52.14744 -0.42139,2.59722 -0.76866,5.95828 -0.7717,7.46901 l -0.006,2.74678 H 384.20252 640.6431 Z"
     id="path3690"
     inkscape:connector-curvature="0" />
  <path
     style="fill:#999999;stroke-width:0.73247498"
     d="m 479.71687,735.11271 -95.22104,-95.22328 95.40416,-95.40417 95.40416,-95.40416 v 63.54186 63.54185 h 160.04578 160.04578 v 63.72367 63.72367 l -159.86266,0.18477 -159.86266,0.18477 -0.36624,63.17715 -0.36624,63.17715 z"
     id="path3692"
     inkscape:connector-curvature="0" />
  <path
     style="fill:#999999;stroke-width:0.73247498"
     d="m 128.49442,416.11903 v -31.86266 h 159.67954 159.67955 v 31.86266 31.86266 H 288.17396 128.49442 Z"
     id="path3694"
     inkscape:connector-curvature="0" />
  <path
     style="fill:#999999;stroke-width:0.73247498"
     d="m 128.49442,543.93591 v -31.49643 h 79.47353 79.47354 v 31.49643 31.49642 h -79.47354 -79.47353 z"
     id="path3696"
     inkscape:connector-curvature="0" />
  <path
     style="fill:#999999;stroke-width:0.73247498"
     d="M 128.49442,672.11903 V 640.6226 h 79.47353 79.47354 v 31.49643 31.49642 h -79.47354 -79.47353 z"
     id="path3698"
     inkscape:connector-curvature="0" />
  <path
     style="fill:#999999;stroke-width:0.73247498"
     d="m 128.49442,799.93591 v -31.86266 h 127.45064 127.45065 v 31.86266 31.86266 H 255.94506 128.49442 Z"
     id="path3700"
     inkscape:connector-curvature="0" />
</svg>
