<?xml version="1.0" encoding="UTF-8" standalone="no"?>
<svg
   xmlns:dc="http://purl.org/dc/elements/1.1/"
   xmlns:cc="http://creativecommons.org/ns#"
   xmlns:rdf="http://www.w3.org/1999/02/22-rdf-syntax-ns#"
   xmlns:svg="http://www.w3.org/2000/svg"
   xmlns="http://www.w3.org/2000/svg"
   xmlns:sodipodi="http://sodipodi.sourceforge.net/DTD/sodipodi-0.dtd"
   xmlns:inkscape="http://www.inkscape.org/namespaces/inkscape"
   width="20px"
   height="20px"
   viewBox="0 0 20 20"
   version="1.1"
   id="svg4495"
   sodipodi:docname="icn.svg"
   inkscape:version="0.92.0 r15299">
  <metadata
     id="metadata4499">
    <rdf:RDF>
      <cc:Work
         rdf:about="">
        <dc:format>image/svg+xml</dc:format>
        <dc:type
           rdf:resource="http://purl.org/dc/dcmitype/StillImage" />
        <dc:title>icn</dc:title>
      </cc:Work>
    </rdf:RDF>
  </metadata>
  <sodipodi:namedview
     pagecolor="#ffffff"
     bordercolor="#666666"
     borderopacity="1"
     objecttolerance="10"
     gridtolerance="10"
     guidetolerance="10"
     inkscape:pageopacity="0"
     inkscape:pageshadow="2"
     inkscape:window-width="2569"
     inkscape:window-height="1660"
     id="namedview4497"
     showgrid="false"
     inkscape:zoom="69.9"
     inkscape:cx="9.8927039"
     inkscape:cy="10"
     inkscape:window-x="294"
     inkscape:window-y="0"
     inkscape:window-maximized="0"
     inkscape:current-layer="svg4495" />
  <!-- Generator: Sketch 42 (36781) - http://www.bohemiancoding.com/sketch -->
  <title
     id="title4485">icn</title>
  <desc
     id="desc4487">Created with Sketch.</desc>
  <defs
     id="defs4489" />
  <g
     id="Page-1"
     stroke="none"
     stroke-width="1"
     fill="none"
     fill-rule="evenodd"
     style="fill:#ffffff">
    <g
       id="icn"
       fill-rule="nonzero"
       fill="#999999"
       style="fill:#ffffff">
      <path
         d="M9.73507254,19.4701451 C4.35854044,19.4701451 0,15.1116046 0,9.73507254 C0,4.35854044 4.35854044,0 9.73507254,0 C15.1116046,0 19.4701451,4.35854044 19.4701451,9.73507254 C19.4701451,15.1116046 15.1116046,19.4701451 9.73507254,19.4701451 Z M9.73507254,17.4701451 C14.0070351,17.4701451 17.4701451,14.0070351 17.4701451,9.73507254 C17.4701451,5.46310994 14.0070351,2 9.73507254,2 C5.46310994,2 2,5.46310994 2,9.73507254 C2,14.0070351 5.46310994,17.4701451 9.73507254,17.4701451 Z"
         id="Oval"
         style="fill:#ffffff" />
      <path
         d="M13.2693346,9.60454847 L11.4988927,9.61458879 C11.2579252,9.61458879 11.0671592,9.81204828 11.0671592,10.049669 L11.070506,10.7926522 C11.0738527,11.5289418 10.4781275,12.1313606 9.73849108,12.1380542 C9.69163628,12.1380542 9.64478149,12.1347074 9.60127346,12.1313606 C8.99885467,12.0744655 8.496839,11.5958773 8.40982295,10.9934585 C8.35627462,10.635354 8.45333098,10.283943 8.67756464,10.0028142 C8.92857247,9.69156452 9.31679792,9.46398409 9.74853139,9.46398409 C11.3148203,9.45729054 12.0812308,9.00547645 12.6970367,8.38297702 C13.9587694,7.11120401 13.7479228,6.24104353 13.7445761,5.09979459 C13.7345358,4.84543998 13.5270359,4.64798049 13.2726813,4.64798049 L11.4921991,4.6580208 C11.2411913,4.6580208 11.0370383,4.86552061 11.0370383,5.11987521 L11.0370383,5.41773784 C11.040385,6.15402748 10.4513533,6.75644627 9.71506368,6.76313982 C8.67421787,6.76983336 7.69696071,7.16140558 6.95063076,7.86757428 C6.14071215,8.63398486 5.67885774,9.71164515 5.68555129,10.8227731 C5.6955916,13.0517227 7.51958184,14.8556323 9.74853139,14.8422452 C9.81212004,14.8422452 9.87905546,14.8388985 9.94264411,14.8355517 C12.0979647,14.7217615 13.7813906,12.9145051 13.7680035,10.7190232 L13.7646567,10.0998706 C13.7713502,9.82878214 13.5437698,9.60454847 13.2693346,9.60454847 Z"
         id="Shape"
         style="fill:#ffffff" />
    </g>
  </g>
</svg>
